<mxfile host="app.diagrams.net" modified="2023-04-05T14:02:48.987Z" agent="Mozilla/5.0 (Windows NT 10.0; Win64; x64) AppleWebKit/537.36 (KHTML, like Gecko) Chrome/111.0.0.0 Safari/537.36" version="21.1.4" etag="kNDOkuLnW71PL4PQ33nE" type="github">
  <diagram name="Page-1" id="uwMvGVKFSeaUd1SQcqtV">
    <mxGraphModel>
      <root>
        <mxCell id="0" />
        <mxCell id="1" parent="0" />
      </root>
    </mxGraphModel>
  </diagram>
</mxfile>
